HIERARCHY
ROOT Hips
{
	OFFSET 0.000000 88.474243 0.000000
	CHANNELS 6 Xposition Yposition Zposition Zrotation Yrotation Xrotation 
	JOINT Hips_Spine
	{
		OFFSET 0.000000 0.000000 0.000000
		CHANNELS 3 Zrotation Yrotation Xrotation
		JOINT Spine
		{
			OFFSET 0.005100 8.711998 -0.691000
			CHANNELS 3 Zrotation Yrotation Xrotation
			JOINT Spine1
			{
				OFFSET -0.009200 8.660301 -1.275000
				CHANNELS 3 Zrotation Yrotation Xrotation
				JOINT Spine2
				{
					OFFSET 0.006300 9.852501 -1.857000
					CHANNELS 3 Zrotation Yrotation Xrotation
					JOINT Spine2_Neck
					{
						OFFSET 0.000000 0.000000 0.000000
						CHANNELS 3 Zrotation Yrotation Xrotation
						JOINT Neck
						{
							OFFSET 0.016300 11.420799 -0.263300
							CHANNELS 3 Zrotation Yrotation Xrotation
							End Site #name: Head
							{
								OFFSET -0.019200 9.262405 2.362500
							}
						}
					}
					JOINT Spine2_LeftShoulder
					{
						OFFSET 0.000000 0.000000 0.000000
						CHANNELS 3 Zrotation Yrotation Xrotation
						JOINT LeftShoulder
						{
							OFFSET 5.616900 6.732201 -0.345700
							CHANNELS 3 Zrotation Yrotation Xrotation
							JOINT LeftArm
							{
								OFFSET 10.664888 -0.183372 -2.440700
								CHANNELS 3 Zrotation Yrotation Xrotation
								JOINT LeftForeArm
								{
									OFFSET 27.459126 0.000000 0.000000
									CHANNELS 3 Zrotation Yrotation Xrotation
									End Site #name: LeftHand
									{
										OFFSET 21.306858 0.000000 0.000000
									}
								}
							}
						}
					}
					JOINT Spine2_RightShoulder
					{
						OFFSET 0.000000 0.000000 0.000000
						CHANNELS 3 Zrotation Yrotation Xrotation
						JOINT RightShoulder
						{
							OFFSET -5.580300 6.737503 -0.344400
							CHANNELS 3 Zrotation Yrotation Xrotation
							JOINT RightArm
							{
								OFFSET -10.679335 -0.188484 -2.383900
								CHANNELS 3 Zrotation Yrotation Xrotation
								JOINT RightForeArm
								{
									OFFSET -27.503529 0.000000 0.000000
									CHANNELS 3 Zrotation Yrotation Xrotation
									End Site #name: RightHand
									{
										OFFSET -21.306808 0.000000 0.000000
									}
								}
							}
						}
					}
				}
			}
		}
	}
	JOINT Hips_LeftUpLeg
	{
		OFFSET 0.000000 0.000000 0.000000
		CHANNELS 3 Zrotation Yrotation Xrotation
		JOINT LeftUpLeg
		{
			OFFSET 6.857700 -6.739601 0.312100
			CHANNELS 3 Zrotation Yrotation Xrotation
			JOINT LeftLeg
			{
				OFFSET -0.367590 -34.731552 -4.572400
				CHANNELS 3 Zrotation Yrotation Xrotation
				End Site #name: LeftFoot
				{
					OFFSET 0.367590 -34.656704 -6.067400
				}
			}
		}
	}
	JOINT Hips_RightUpLeg
	{
		OFFSET 0.000000 0.000000 0.000000
		CHANNELS 3 Zrotation Yrotation Xrotation
		JOINT RightUpLeg
		{
			OFFSET -6.876100 -6.733299 0.301000
			CHANNELS 3 Zrotation Yrotation Xrotation
			JOINT RightLeg
			{
				OFFSET 0.347353 -34.795158 -4.515900
				CHANNELS 3 Zrotation Yrotation Xrotation
				End Site #name: RightFoot
				{
					OFFSET -0.347353 -34.589367 -6.070300
				}
			}
		}
	}
}
MOTION
Frames: 6
Frame Time: 0.041667
-1.058517 1.863389 0.345208 8.808897 47.771761 -16.862443 0.000000 -0.000000 0.000000 -7.831694 4.837744 -26.366065 5.790852 -8.641194 -5.837495 0.000000 0.000000 0.000000 3.925367 -0.710785 0.742572 -13.987942 -1.900871 -7.175786 14.214745 2.671594 -7.405957 -54.968764 -31.299557 7.392664 -156.839735 46.456879 -115.878975 -179.657970 -31.874321 177.059357 5.587729 3.074435 -4.078890 9.695602 5.428549 6.019297 165.107277 69.576304 38.449741 0.595349 29.182680 4.454890 0.000000 -0.000000 0.000000 40.516329 6.070165 36.433307 59.044498 27.324627 108.531457 -0.000000 -0.000000 0.000000 82.223240 8.339792 -3.779648 -14.744904 7.467627 -81.174920 
-2.626371 4.357215 0.334348 14.487966 42.872274 -16.807895 0.000000 -0.000000 0.000000 -1.289684 8.801919 -51.084924 3.751496 -6.245674 7.116802 0.000000 0.000000 0.000000 -2.062404 1.818436 2.428766 -27.122969 5.339881 -10.138670 16.225113 0.652505 -8.414439 -81.385369 -34.077434 15.996892 -155.724143 44.679111 -120.075195 175.506992 -30.807182 178.652306 6.717887 1.641858 -12.425437 19.673471 17.867066 -0.837371 -69.643058 88.915415 160.630824 -3.800569 73.911998 -1.659486 0.000000 -0.000000 0.000000 38.007750 -9.636435 39.663813 59.703583 22.432197 127.242574 -0.000000 -0.000000 0.000000 72.826642 -0.451953 -25.829685 -18.789868 3.691588 -81.050819 
-4.566036 6.772944 0.436990 14.430284 49.050014 -17.243185 0.000000 -0.000000 0.000000 2.778042 10.970729 -56.646677 2.859824 -5.059863 11.756896 0.000000 0.000000 0.000000 -3.718389 3.895325 11.431234 -33.541767 12.224860 -5.927515 15.722427 0.150543 -9.713233 -92.378885 -31.041178 16.140054 -150.344351 45.484043 -116.495605 175.799547 -25.386586 179.168359 6.971120 1.899822 -10.855070 32.498699 4.480800 -9.642765 24.396033 70.989704 -117.120215 -173.511824 55.489040 -174.908098 0.000000 -0.000000 0.000000 31.576733 -13.925831 38.601083 73.352615 25.898881 125.314891 -0.000000 -0.000000 0.000000 67.880679 6.057127 -33.301565 -20.648553 7.247795 -75.970940 
-6.726822 9.393042 0.665004 14.036326 55.920982 -17.135773 0.000000 -0.000000 0.000000 4.652320 13.517288 -57.722508 1.671958 -5.416929 11.149247 0.000000 0.000000 0.000000 -4.835378 4.083569 12.883310 -39.576291 15.451179 -2.195957 14.106734 -1.759631 -9.666651 -97.824069 -28.455443 15.221795 -148.765457 48.452350 -117.802883 176.532708 -23.709501 178.854254 6.066188 0.625335 -11.412356 35.625684 1.228565 -11.871170 35.519841 58.707266 -119.766980 -174.878680 34.925748 -176.368045 -0.000000 -0.000000 0.000000 29.077190 -17.777738 39.519288 75.505354 28.734741 122.736611 -0.000000 -0.000000 0.000000 67.434702 6.368163 -35.933055 -20.724296 7.009077 -73.198082 
-9.042211 12.137470 1.081045 13.015827 63.084915 -17.483101 0.000000 -0.000000 0.000000 6.498998 15.169699 -55.650823 0.742785 -6.189639 9.591061 0.000000 0.000000 0.000000 -5.340966 3.069835 11.857308 -46.286579 15.867204 -2.715844 12.799325 -3.098413 -9.174988 -99.307108 -26.330313 14.764004 -149.241091 50.313838 -120.083165 176.961509 -25.346190 178.608992 4.035654 -1.191567 -11.184242 38.249744 -0.941059 -13.992643 38.519207 54.355085 -126.057375 -176.680504 21.354893 -177.389636 -0.000000 -0.000000 0.000000 29.790794 -19.037902 38.681474 75.309922 29.434361 121.979791 -0.000000 -0.000000 0.000000 67.728057 5.871419 -37.461790 -21.496859 8.135921 -70.910773 
-11.463934 14.993376 1.622077 12.113590 68.269136 -17.859059 0.000000 -0.000000 0.000000 7.465088 15.125448 -52.829953 0.007863 -7.428976 7.890858 0.000000 0.000000 0.000000 -5.765148 2.153133 10.754555 -51.980564 17.031346 -3.429431 11.492704 -3.824629 -8.639091 -99.549830 -25.406242 14.092197 -151.660643 51.263570 -122.558639 176.992449 -27.182887 178.503233 2.577092 -2.674867 -10.601608 42.148725 -2.661233 -15.618273 40.247008 51.015351 -130.136346 -177.758541 20.672294 -177.310368 -0.000000 -0.000000 0.000000 31.656374 -20.253876 35.478977 74.756937 30.127782 120.990949 -0.000000 -0.000000 0.000000 68.568784 5.190877 -37.330850 -22.357598 9.066415 -68.825291 
